<?xml version="1.0" encoding="iso-8859-1"?>
<!-- Generator: Adobe Illustrator 19.0.0, SVG Export Plug-In . SVG Version: 6.00 Build 0)  -->
<svg version="1.1" id="Capa_1" xmlns="http://www.w3.org/2000/svg" xmlns:xlink="http://www.w3.org/1999/xlink" x="0px" y="0px"
	 viewBox="0 0 512 512" style="enable-background:new 0 0 512 512;" xml:space="preserve">
<g>
	<g>
		<path d="M336.995,0C240.342,0,161.99,78.352,161.99,175.005c0,31.993,8.591,61.976,23.583,87.781L0,448.358L63.641,512
			l185.572-185.572c25.805,14.991,55.789,23.583,87.782,23.583C433.648,350.01,512,271.658,512,175.005S433.648,0,336.995,0z
			 M63.641,469.572l-21.214-21.214L202.64,288.145l10.602,10.601c0.003,0.003,0.007,0.007,0.01,0.01l10.602,10.602L63.641,469.572z
			 M336.995,320.009c-80.083,0-145.004-64.921-145.004-145.004S256.911,30.001,336.995,30.001s145.004,64.921,145.004,145.004
			S417.078,320.009,336.995,320.009z"/>
	</g>
</g>
<g>
</g>
<g>
</g>
<g>
</g>
<g>
</g>
<g>
</g>
<g>
</g>
<g>
</g>
<g>
</g>
<g>
</g>
<g>
</g>
<g>
</g>
<g>
</g>
<g>
</g>
<g>
</g>
<g>
</g>
</svg>
